<svg xmlns="http://www.w3.org/2000/svg" xmlns:xlink="http://www.w3.org/1999/xlink" width="15" height="19" viewBox="0 0 15 19"><defs><path id="1kk9a" d="M674.2 5910.78a.59.59 0 0 0-.58.6v2.07a.3.3 0 0 1-.3.3h-2.01a.59.59 0 0 0-.58.6c0 .32.26.59.58.59h2.02c.8 0 1.44-.67 1.44-1.49v-2.08c0-.32-.26-.59-.58-.59zm2.3 4.75a.59.59 0 0 0-.58.6v4.5l-1.32-1.36a.57.57 0 0 0-.82 0 .6.6 0 0 0 0 .84l2.3 2.36a.57.57 0 0 0 .84 0l2.3-2.36a.6.6 0 0 0 0-.84.57.57 0 0 0-.82 0l-1.32 1.36v-4.5c0-.33-.26-.6-.58-.6zm-3.46 8.31a.58.58 0 0 0-.58.6c0 .33.26.6.58.6h6.92c.32 0 .58-.27.58-.6 0-.33-.26-.6-.58-.6zm1.13-13.65h8.35c.18 0 .33.13.33.3v16.03c0 .16-.15.3-.33.3h-12.04c-.18 0-.33-.14-.33-.3v-12.2c0-.2.08-.4.22-.55l3.26-3.36a.74.74 0 0 1 .54-.22zm0-1.19c-.51 0-1 .2-1.35.57l-3.26 3.36a2 2 0 0 0-.56 1.39v12.2c0 .81.66 1.48 1.48 1.48h12.04c.82 0 1.48-.67 1.48-1.49v-16.02c0-.82-.66-1.49-1.48-1.49z"/></defs><g><g transform="translate(-669 -5909)"><use fill="#f5f6fa" xlink:href="#1kk9a"/></g></g></svg>