<svg xmlns="http://www.w3.org/2000/svg" xmlns:xlink="http://www.w3.org/1999/xlink" width="14" height="15" viewBox="0 0 14 15"><defs><path id="sc9sa" d="M1043.45 69a1.2 1.2 0 0 0-.62.18c-.38.23-1.3.86-1.72 1.69-.26.51-.37 5.2 3.18 9.15a11.47 11.47 0 0 0 8.06 3.98c.19 0 .33-.01.41-.03h.02l.06-.02a4.91 4.91 0 0 0 1.9-1.48c.51-.63.14-1.38-.05-1.78l-.08-.17c-.24-.55-3.13-1.39-3.37-1.4l-.2.01c-.39.08-.82.45-1.73 1.25a12 12 0 0 1-3.1-2.46c-.72-.8-1.62-2.15-1.94-3.15 1.04-.92 1.47-1.31 1.5-1.75.02-.24-.48-3.18-1-3.48l-.16-.1c-.29-.18-.7-.44-1.16-.44z"/></defs><g><g transform="translate(-1041 -69)"><use fill="#fff" xlink:href="#sc9sa"/></g></g></svg>