<svg xmlns="http://www.w3.org/2000/svg" xmlns:xlink="http://www.w3.org/1999/xlink" width="15" height="16" viewBox="0 0 15 16"><defs><path id="f8cia" d="M1369.63 6023a1.28 1.28 0 0 0-.67.2c-.4.24-1.39.91-1.84 1.8-.28.54-.4 5.53 3.4 9.76a12.31 12.31 0 0 0 8.64 4.24c.2 0 .35-.01.44-.03h.02l.06-.02a5.26 5.26 0 0 0 2.04-1.58c.55-.67.16-1.47-.06-1.9l-.08-.18c-.25-.58-3.35-1.48-3.61-1.5l-.2.02c-.43.08-.9.48-1.87 1.33-1.1-.5-2.61-1.84-3.32-2.63a11.02 11.02 0 0 1-2.08-3.36c1.12-.97 1.58-1.4 1.61-1.87.02-.25-.51-3.38-1.07-3.7l-.17-.1c-.3-.2-.75-.48-1.24-.48z"/></defs><g><g transform="translate(-1367 -6023)"><use fill="#06080c" xlink:href="#f8cia"/></g></g></svg>